<svg width="16" height="16" viewBox="0 0 16 16" fill="none" xmlns="http://www.w3.org/2000/svg">
<path fill-rule="evenodd" clip-rule="evenodd" d="M14.8943 2.21967C14.6014 1.92678 14.1266 1.92678 13.8337 2.21967L2.16641 13.8869C1.87352 14.1798 1.87352 14.6547 2.16641 14.9476C2.4593 15.2405 2.93418 15.2405 3.22707 14.9476L4.85999 13.3147C5.82404 13.767 6.8854 14.0534 8 14.0534C12.4183 14.0534 16 9.55341 16 8.05341C16 7.30585 15.1104 5.81315 13.6709 4.50371L14.8943 3.28033C15.1872 2.98744 15.1872 2.51256 14.8943 2.21967ZM12.6089 5.56574L10.6909 7.48374C10.7296 7.66754 10.75 7.8581 10.75 8.05341C10.75 9.57219 9.51878 10.8034 8 10.8034C7.80468 10.8034 7.61413 10.783 7.43033 10.7443L6.00384 12.1708C6.64795 12.4133 7.32009 12.5534 8 12.5534C9.70519 12.5534 11.3615 11.6722 12.6494 10.5046C13.2821 9.93103 13.7796 9.3284 14.1078 8.81539C14.3789 8.39158 14.463 8.14173 14.4888 8.06508L14.4927 8.05341L14.4888 8.04174C14.463 7.96509 14.3789 7.71524 14.1078 7.29143C13.7796 6.77842 13.2821 6.1758 12.6494 5.6022C12.6359 5.59001 12.6224 5.57786 12.6089 5.56574ZM8 2.05341C9.30378 2.05341 10.5347 2.44526 11.6223 3.03624L10.5067 4.15186C9.71109 3.77849 8.86178 3.55341 8 3.55341C6.29481 3.55341 4.63846 4.43465 3.35064 5.6022C2.71795 6.1758 2.22043 6.77842 1.89225 7.29143C1.62112 7.71524 1.53702 7.96509 1.51122 8.04174L1.50727 8.05341L1.51122 8.06508C1.53702 8.14173 1.62112 8.39158 1.89225 8.81539C2.22043 9.3284 2.71795 9.93103 3.35064 10.5046C3.49077 10.6317 3.63526 10.7553 3.7837 10.8748L2.71777 11.9407C1.05147 10.5596 0 8.86614 0 8.05341C0 6.55341 3.58172 2.05341 8 2.05341ZM8 5.30341C8.39818 5.30341 8.77659 5.38804 9.11824 5.54028L5.48687 9.17165C5.33463 8.83 5.25 8.45159 5.25 8.05341C5.25 6.53463 6.48122 5.30341 8 5.30341Z" fill="#4D5061"/>
</svg>
