<svg width="16" height="16" viewBox="0 0 16 16" fill="none" xmlns="http://www.w3.org/2000/svg">
<path fill-rule="evenodd" clip-rule="evenodd" d="M14.456 7.95738C14.4625 7.97293 14.4683 7.98713 14.4734 8C14.4683 8.01288 14.4625 8.02707 14.456 8.04263C14.3919 8.19406 14.281 8.40502 14.1137 8.6624C13.7798 9.17597 13.2756 9.79141 12.6382 10.3811C11.3355 11.5863 9.68337 12.5 8 12.5C6.31663 12.5 4.66455 11.5863 3.36177 10.3811C2.72439 9.79141 2.22017 9.17597 1.88632 8.6624C1.71902 8.40502 1.60809 8.19406 1.54404 8.04263C1.53746 8.02707 1.53168 8.01287 1.52662 8C1.53168 7.98713 1.53746 7.97293 1.54404 7.95738C1.60809 7.80594 1.71902 7.59498 1.88632 7.3376C2.22017 6.82403 2.72439 6.20859 3.36177 5.61895C4.66455 4.41374 6.31663 3.5 8 3.5C9.68337 3.5 11.3355 4.41374 12.6382 5.61895C13.2756 6.20859 13.7798 6.82403 14.1137 7.3376C14.281 7.59498 14.3919 7.80594 14.456 7.95738ZM16 8C16 9.28571 12.4183 14 8 14C3.58172 14 0 9.28571 0 8C0 6.71429 3.58172 2 8 2C12.4183 2 16 6.71429 16 8ZM8 10.5C9.38071 10.5 10.5 9.38071 10.5 8C10.5 6.61929 9.38071 5.5 8 5.5C6.61929 5.5 5.5 6.61929 5.5 8C5.5 9.38071 6.61929 10.5 8 10.5Z" fill="#4D5061"/>
</svg>
