<svg width="16" height="16" viewBox="0 0 16 16" fill="none" xmlns="http://www.w3.org/2000/svg">
<g clip-path="url(#clip0_1_1586)">
<path fill-rule="evenodd" clip-rule="evenodd" d="M8.47475 1.8541L8.69424 2.51671L9.3378 2.77743C10.6058 3.29114 11.5585 4.52454 11.6811 6.04209L11.682 6.05275L11.683 6.0634L12.493 11.4896H3.49988L4.31706 6.0634L4.31807 6.05275L4.31893 6.04209C4.44153 4.52456 5.39422 3.29116 6.66224 2.77744L7.30579 2.51672L7.52528 1.85411C7.59206 1.65248 7.78151 1.51038 8.00002 1.51038C8.21852 1.51038 8.40796 1.65247 8.47475 1.8541ZM1.99303 11.4896L2.82387 5.91962C2.99273 3.82955 4.30944 2.10259 6.10234 1.37623C6.36723 0.57652 7.11676 0 8.00002 0C8.88326 0 9.63278 0.576509 9.89769 1.3762C11.6906 2.10255 13.0074 3.82953 13.1762 5.91962L13.9999 11.4896H15.2499C15.6641 11.4896 15.9999 11.8277 15.9999 12.2448C15.9999 12.6619 15.6641 13 15.2499 13H10V13.9862C10 15.0984 9.10458 16 8.00002 16C6.89545 16 6.00002 15.0984 6.00002 13.9862V13H0.749878C0.335664 13 -0.00012207 12.6619 -0.00012207 12.2448C-0.00012207 11.8277 0.335664 11.4896 0.749878 11.4896H1.99303ZM7.50002 13V13.9862C7.50002 14.2642 7.72387 14.4896 8.00002 14.4896C8.27616 14.4896 8.50002 14.2642 8.50002 13.9862V13H7.50002Z" fill="#4D5061"/>
</g>
<defs>
<clipPath id="clip0_1_1586">
<rect width="16" height="16" fill="white"/>
</clipPath>
</defs>
</svg>
