<svg width="16" height="16" viewBox="0 0 16 16" fill="none" xmlns="http://www.w3.org/2000/svg">
<g clip-path="url(#clip0_1_1629)">
<path d="M3.14749 5.88147L2.36858 10.9451H1.20312C0.8148 10.9451 0.5 11.2525 0.5 11.6316C0.5 12.0108 0.8148 12.3182 1.20312 12.3182H14.7969C15.1852 12.3182 15.5 12.0108 15.5 11.6316C15.5 11.2525 15.1852 10.9451 14.7969 10.9451H13.625L12.8528 5.88147C12.6945 3.98139 11.4601 2.41141 9.77919 1.75109C9.53085 1.0241 8.82817 0.5 8.00013 0.5C7.17208 0.5 6.46939 1.02411 6.22105 1.75112C4.54022 2.41145 3.3058 3.98141 3.14749 5.88147Z" fill="#4D5061"/>
<path d="M9.87513 13.2273H6.12513V13.6692C6.12513 14.6803 6.96459 15.5 8.00013 15.5C9.03566 15.5 9.87513 14.6803 9.87513 13.6692V13.2273Z" fill="#4D5061"/>
</g>
<defs>
<clipPath id="clip0_1_1629">
<rect width="16" height="16" fill="white"/>
</clipPath>
</defs>
</svg>
