<svg width="16" height="16" viewBox="0 0 16 16" fill="none" xmlns="http://www.w3.org/2000/svg">
<path fill-rule="evenodd" clip-rule="evenodd" d="M11.5932 2.78354C10.9752 2.12256 9.89107 1.50412 8 1.50412C6.10893 1.50412 5.02477 2.12256 4.40681 2.78354C3.75555 3.48012 3.5 4.35387 3.5 5.01374C3.5 6.3547 4.23426 8.20404 5.33402 10.1358C6.21448 11.6822 7.23322 13.1194 8 14.1321C8.76678 13.1194 9.78552 11.6822 10.666 10.1358C11.7657 8.20404 12.5 6.3547 12.5 5.01374C12.5 4.35387 12.2445 3.48012 11.5932 2.78354ZM14 5.01374C14 3.00825 12.5 0 8 0C3.5 0 2 3.00825 2 5.01374C2 8.53906 5.66217 13.5945 7.26432 15.6375C7.64339 16.1208 8.35661 16.1208 8.73568 15.6375C10.3378 13.5945 14 8.53906 14 5.01374Z" fill="#4D5061"/>
<path fill-rule="evenodd" clip-rule="evenodd" d="M11 6.01649C11 7.6779 9.65685 9.02474 8 9.02474C6.34315 9.02474 5 7.6779 5 6.01649C5 4.35508 6.34315 3.00824 8 3.00824C9.65685 3.00824 11 4.35508 11 6.01649ZM8 7.52061C8.82843 7.52061 9.5 6.84719 9.5 6.01649C9.5 5.18579 8.82843 4.51237 8 4.51237C7.17157 4.51237 6.5 5.18579 6.5 6.01649C6.5 6.84719 7.17157 7.52061 8 7.52061Z" fill="#4D5061"/>
</svg>
